<svg viewBox="0 0 160 192" fill="none" xmlns="http://www.w3.org/2000/svg">
  <g clip-path="url(#clip0)">
    
    <path d="M0.12699 43.8989C-0.863275 37.1255 4.04575 30.863 11.0915 29.911L113.152 16.1221C120.197 15.1702 126.712 19.8893 127.702 26.6627L147.873 164.635C148.863 171.409 143.954 177.671 136.908 178.623L39.1006 191.837C29.7063 193.107 21.0203 186.814 19.7001 177.784L0.12699 43.8989Z" fill="url(#paintShadow)"></path>
    
    <path d="M10.1376 30.5728C9.06487 22.8787 14.3827 15.7647 22.0152 14.6834L124.678 0.138664C132.31 -0.942678 139.367 4.41806 140.44 12.1122L159.862 151.427C160.935 159.121 155.617 166.235 147.985 167.317L45.3224 181.861C37.6899 182.943 30.6329 177.582 29.5602 169.888L10.1376 30.5728Z" fill="url(#paintBorder)"></path>
    
    <path d="M19.0979 33.7417C18.3346 28.2753 22.1183 23.221 27.5489 22.4527L121.946 9.09852C127.376 8.33025 132.397 12.1389 133.161 17.6054L151.402 148.258C152.165 153.725 148.382 158.779 142.951 159.547L48.5544 172.901C43.1238 173.67 38.1027 169.861 37.3394 164.395L19.0979 33.7417Z" fill="white"></path>
    
    <g transform="rotate(-7 80 96)">
      <g transform="translate(46.3 56.7) scale(0.13)">
        <path d="M502.17 201.67C516.69 287.53 471.23 369.59 389 409.8c13 34.1-12.4 70.2-48.32 70.2a51.68 51.68 0 0 1-51.57-49c-6.44.19-64.2 0-76.33-.64A51.69 51.69 0 0 1 159 479.92c-33.86-1.36-57.95-34.84-47-67.92-37.21-13.11-72.54-34.87-99.62-70.8-13-17.28-.48-41.8 20.84-41.8 46.31 0 32.22-54.17 43.15-110.26C94.8 95.2 193.12 32 288.09 32c102.48 0 197.15 70.67 214.08 169.67zM373.51 388.28c42-19.18 81.33-56.71 96.29-102.14 40.48-123.09-64.15-228-181.71-228-83.45 0-170.32 55.42-186.07 136-9.53 48.91 5 131.35-68.75 131.35C58.21 358.6 91.6 378.11 127 389.54c24.66-21.8 63.87-15.47 79.83 14.34 14.22 1 79.19 1.18 87.9.82a51.69 51.69 0 0 1 78.78-16.42zM205.12 187.13c0-34.74 50.84-34.75 50.84 0s-50.84 34.74-50.84 0zm116.57 0c0-34.74 50.86-34.75 50.86 0s-50.86 34.75-50.86 0zm-122.61 70.69c-3.44-16.94 22.18-22.18 25.62-5.21l.06.28c4.14 21.42 29.85 44 64.12 43.07 35.68-.94 59.25-22.21 64.11-42.77 4.46-16.05 28.6-10.36 25.47 6-5.23 22.18-31.21 62-91.46 62.9-42.55 0-80.88-27.84-87.9-64.25z" fill="url(#paintWaze)"></path>
      </g>
      <rect x="98" y="101" width="36" height="36" rx="11" fill="#ffffff"></rect>
      <rect x="101" y="104" width="30" height="30" rx="8" fill="#E2231A"></rect>
      <rect x="113" y="109" width="6" height="20" rx="1.5" fill="#ffffff"></rect>
      <rect x="106" y="116" width="20" height="6" rx="1.5" fill="#ffffff"></rect>
    </g>
  </g>
  <defs>
    <linearGradient id="paintShadow" x1="0.45" y1="16.4" x2="148.4" y2="191.5" gradientUnits="userSpaceOnUse">
      <stop stop-color="#C23A30"></stop>
      <stop offset="1" stop-color="#2A0805"></stop>
    </linearGradient>
    <linearGradient id="paintBorder" x1="11.2" y1="19.2" x2="158.9" y2="162.7" gradientUnits="userSpaceOnUse">
      <stop stop-color="#FF5347"></stop>
      <stop offset="1" stop-color="#8E1409"></stop>
    </linearGradient>
    <linearGradient id="paintWaze" x1="0" y1="32" x2="512" y2="480" gradientUnits="userSpaceOnUse">
      <stop stop-color="#332F2B"></stop>
      <stop offset="1" stop-color="#121110"></stop>
    </linearGradient>
    <clipPath id="clip0">
      <rect width="160" height="192" fill="white"></rect>
    </clipPath>
  </defs>
</svg>